<svg xmlns="http://www.w3.org/2000/svg" width="340" height="340" viewBox="0 0 200 200">
<defs><filter id="metal" x="-20%" y="-20%" width="140%" height="140%" color-interpolation-filters="sRGB"><feGaussianBlur in="SourceAlpha" stdDeviation="2.6" result="height"/><feSpecularLighting in="height" surfaceScale="6" specularConstant="1.1" specularExponent="22" lighting-color="#ffffff" result="spec"><feDistantLight azimuth="225" elevation="42"/></feSpecularLighting><feComposite in="spec" in2="SourceAlpha" operator="in" result="specIn"/><feDiffuseLighting in="height" surfaceScale="5" diffuseConstant="1.05" lighting-color="#ffffff" result="diffuse"><feDistantLight azimuth="225" elevation="55"/></feDiffuseLighting><feComposite in="SourceGraphic" in2="diffuse" operator="arithmetic" k1="1.15" k2="0" k3="0" k4="0" result="lit"/><feTurbulence type="fractalNoise" baseFrequency="1.6 0.25" numOctaves="2" seed="9" result="scratch"/><feColorMatrix in="scratch" values="0 0 0 0 0  0 0 0 0 0  0 0 0 0 0  0 0 0 -2.2 1.25" result="wear"/><feComposite in="wear" in2="SourceAlpha" operator="in" result="wearIn"/><feComposite in="lit" in2="wearIn" operator="arithmetic" k1="0" k2="1" k3="-0.18" k4="0" result="worn"/><feComposite in="worn" in2="specIn" operator="arithmetic" k1="0" k2="1" k3="0.85" k4="0" result="shine"/><feComposite in="shine" in2="SourceAlpha" operator="in"/></filter><filter id="stone" x="0" y="0" width="100%" height="100%" color-interpolation-filters="sRGB"><feTurbulence type="fractalNoise" baseFrequency="0.045" numOctaves="4" seed="3" result="noise"/><feDiffuseLighting in="noise" surfaceScale="2.4" diffuseConstant="0.9" lighting-color="#ffffff" result="relief"><feDistantLight azimuth="225" elevation="50"/></feDiffuseLighting><feComposite in="SourceGraphic" in2="relief" operator="arithmetic" k1="1.25" k2="0" k3="0" k4="0" result="lit"/><feComposite in="lit" in2="SourceAlpha" operator="in"/></filter><filter id="glow" x="-50%" y="-50%" width="200%" height="200%"><feGaussianBlur stdDeviation="4"/></filter><filter id="wideGlow" x="-60%" y="-60%" width="220%" height="220%"><feGaussianBlur stdDeviation="11"/></filter><filter id="grain" x="0" y="0" width="100%" height="100%"><feTurbulence type="fractalNoise" baseFrequency="0.95" numOctaves="2" seed="4"/><feColorMatrix values="0 0 0 0 0.7  0 0 0 0 0.95  0 0 0 0 0.95  0 0 0 0.13 0"/></filter><linearGradient id="silver" x1="0" y1="0" x2="0" y2="1"><stop offset="0" stop-color="#e9f3f2"/><stop offset="0.5" stop-color="#9fb4b5"/><stop offset="1" stop-color="#53686b"/></linearGradient><linearGradient id="tealMetal" x1="0" y1="0" x2="0" y2="1"><stop offset="0" stop-color="#bffcf3"/><stop offset="0.5" stop-color="#3fbfb2"/><stop offset="1" stop-color="#0d4e4c"/></linearGradient><linearGradient id="bone" x1="0" y1="0" x2="0" y2="1"><stop offset="0" stop-color="#c9ccc0"/><stop offset="0.6" stop-color="#8a9088"/><stop offset="1" stop-color="#454b47"/></linearGradient><linearGradient id="oldGold" x1="0" y1="0" x2="0" y2="1"><stop offset="0" stop-color="#e8d9a0"/><stop offset="0.5" stop-color="#9c8a4e"/><stop offset="1" stop-color="#4a3f1e"/></linearGradient><linearGradient id="darkWood" x1="0" y1="0" x2="0" y2="1"><stop offset="0" stop-color="#6a6150"/><stop offset="1" stop-color="#2a2a22"/></linearGradient><radialGradient id="shade" cx="0.5" cy="0.42" r="0.75"><stop offset="0.35" stop-color="#000" stop-opacity="0"/><stop offset="1" stop-color="#000" stop-opacity="0.7"/></radialGradient><radialGradient id="aura" cx="0.5" cy="0.5" r="0.5"><stop offset="0" stop-color="#4ff5e2" stop-opacity="0.35"/><stop offset="1" stop-color="#4ff5e2" stop-opacity="0"/></radialGradient></defs>
<rect x="4" y="4" width="192" height="192" rx="10" fill="#263739" filter="url(#stone)"/><rect x="4" y="4" width="192" height="192" rx="10" fill="url(#shade)"/><rect x="4" y="4" width="192" height="192" rx="10" filter="url(#grain)"/><path d="M4 14 Q4 4 14 4 L186 4 Q196 4 196 14 L196 186 Q196 196 186 196 L14 196 Q4 196 4 186 Z M12 18 Q12 12 18 12 L182 12 Q188 12 188 18 L188 182 Q188 188 182 188 L18 188 Q12 188 12 182 Z" fill-rule="evenodd" fill="url(#silver)" filter="url(#metal)"/><path d="M100 40 V160" fill="#4ff5e2" stroke="#4ff5e2" stroke-width="22" stroke-linejoin="round" filter="url(#wideGlow)" opacity="0.25"/><path d="M100 22 A16 16 0 1 1 99.9 22 Z M100 31 A7 7 0 1 0 100.1 31 Z" fill="none" stroke="#03090b" stroke-width="8" stroke-linejoin="round"/><path d="M100 22 A16 16 0 1 1 99.9 22 Z M100 31 A7 7 0 1 0 100.1 31 Z" fill="url(#silver)" filter="url(#metal)"/><path d="M91 52 L109 52 L109 158 Q100 168 91 158 Z" fill="none" stroke="#03090b" stroke-width="8" stroke-linejoin="round"/><path d="M91 52 L109 52 L109 158 Q100 168 91 158 Z" fill="url(#silver)" filter="url(#metal)"/><path d="M54 64 L146 64 Q154 72 146 80 L54 80 Q46 72 54 64 Z" fill="none" stroke="#03090b" stroke-width="8" stroke-linejoin="round"/><path d="M54 64 L146 64 Q154 72 146 80 L54 80 Q46 72 54 64 Z" fill="url(#silver)" filter="url(#metal)"/><path d="M34 112 C38 152 70 170 100 170 C130 170 162 152 166 112 L154 116 C148 144 126 156 100 156 C74 156 52 144 46 116 Z" fill="none" stroke="#03090b" stroke-width="8" stroke-linejoin="round"/><path d="M34 112 C38 152 70 170 100 170 C130 170 162 152 166 112 L154 116 C148 144 126 156 100 156 C74 156 52 144 46 116 Z" fill="url(#silver)" filter="url(#metal)"/><path d="M22 122 L38 88 L58 120 Z" fill="none" stroke="#03090b" stroke-width="8" stroke-linejoin="round"/><path d="M22 122 L38 88 L58 120 Z" fill="url(#silver)" filter="url(#metal)"/><path d="M178 122 L162 88 L142 120 Z" fill="none" stroke="#03090b" stroke-width="8" stroke-linejoin="round"/><path d="M178 122 L162 88 L142 120 Z" fill="url(#silver)" filter="url(#metal)"/><path d="M84 94 Q118 100 84 110 Q118 116 84 126 Q106 130 116 140" fill="none" stroke="#03090b" stroke-width="12" stroke-linecap="round"/><path d="M84 94 Q118 100 84 110 Q118 116 84 126 Q106 130 116 140" fill="none" stroke="#7a6a4a" stroke-width="6" stroke-linecap="round" filter="url(#metal)"/>
</svg>
