<svg xmlns="http://www.w3.org/2000/svg" width="340" height="340" viewBox="0 0 200 200">
<defs><filter id="metal" x="-20%" y="-20%" width="140%" height="140%" color-interpolation-filters="sRGB"><feGaussianBlur in="SourceAlpha" stdDeviation="2.6" result="height"/><feSpecularLighting in="height" surfaceScale="6" specularConstant="1.1" specularExponent="22" lighting-color="#ffffff" result="spec"><feDistantLight azimuth="225" elevation="42"/></feSpecularLighting><feComposite in="spec" in2="SourceAlpha" operator="in" result="specIn"/><feDiffuseLighting in="height" surfaceScale="5" diffuseConstant="1.05" lighting-color="#ffffff" result="diffuse"><feDistantLight azimuth="225" elevation="55"/></feDiffuseLighting><feComposite in="SourceGraphic" in2="diffuse" operator="arithmetic" k1="1.15" k2="0" k3="0" k4="0" result="lit"/><feTurbulence type="fractalNoise" baseFrequency="1.6 0.25" numOctaves="2" seed="9" result="scratch"/><feColorMatrix in="scratch" values="0 0 0 0 0  0 0 0 0 0  0 0 0 0 0  0 0 0 -2.2 1.25" result="wear"/><feComposite in="wear" in2="SourceAlpha" operator="in" result="wearIn"/><feComposite in="lit" in2="wearIn" operator="arithmetic" k1="0" k2="1" k3="-0.18" k4="0" result="worn"/><feComposite in="worn" in2="specIn" operator="arithmetic" k1="0" k2="1" k3="0.85" k4="0" result="shine"/><feComposite in="shine" in2="SourceAlpha" operator="in"/></filter><filter id="stone" x="0" y="0" width="100%" height="100%" color-interpolation-filters="sRGB"><feTurbulence type="fractalNoise" baseFrequency="0.045" numOctaves="4" seed="3" result="noise"/><feDiffuseLighting in="noise" surfaceScale="2.4" diffuseConstant="0.9" lighting-color="#ffffff" result="relief"><feDistantLight azimuth="225" elevation="50"/></feDiffuseLighting><feComposite in="SourceGraphic" in2="relief" operator="arithmetic" k1="1.25" k2="0" k3="0" k4="0" result="lit"/><feComposite in="lit" in2="SourceAlpha" operator="in"/></filter><filter id="glow" x="-50%" y="-50%" width="200%" height="200%"><feGaussianBlur stdDeviation="4"/></filter><filter id="wideGlow" x="-60%" y="-60%" width="220%" height="220%"><feGaussianBlur stdDeviation="11"/></filter><filter id="grain" x="0" y="0" width="100%" height="100%"><feTurbulence type="fractalNoise" baseFrequency="0.95" numOctaves="2" seed="4"/><feColorMatrix values="0 0 0 0 0.7  0 0 0 0 0.95  0 0 0 0 0.95  0 0 0 0.13 0"/></filter><linearGradient id="silver" x1="0" y1="0" x2="0" y2="1"><stop offset="0" stop-color="#e9f3f2"/><stop offset="0.5" stop-color="#9fb4b5"/><stop offset="1" stop-color="#53686b"/></linearGradient><linearGradient id="tealMetal" x1="0" y1="0" x2="0" y2="1"><stop offset="0" stop-color="#bffcf3"/><stop offset="0.5" stop-color="#3fbfb2"/><stop offset="1" stop-color="#0d4e4c"/></linearGradient><linearGradient id="bone" x1="0" y1="0" x2="0" y2="1"><stop offset="0" stop-color="#c9ccc0"/><stop offset="0.6" stop-color="#8a9088"/><stop offset="1" stop-color="#454b47"/></linearGradient><linearGradient id="oldGold" x1="0" y1="0" x2="0" y2="1"><stop offset="0" stop-color="#e8d9a0"/><stop offset="0.5" stop-color="#9c8a4e"/><stop offset="1" stop-color="#4a3f1e"/></linearGradient><linearGradient id="darkWood" x1="0" y1="0" x2="0" y2="1"><stop offset="0" stop-color="#6a6150"/><stop offset="1" stop-color="#2a2a22"/></linearGradient><radialGradient id="shade" cx="0.5" cy="0.42" r="0.75"><stop offset="0.35" stop-color="#000" stop-opacity="0"/><stop offset="1" stop-color="#000" stop-opacity="0.7"/></radialGradient><radialGradient id="aura" cx="0.5" cy="0.5" r="0.5"><stop offset="0" stop-color="#4ff5e2" stop-opacity="0.35"/><stop offset="1" stop-color="#4ff5e2" stop-opacity="0"/></radialGradient></defs>
<rect x="4" y="4" width="192" height="192" rx="10" fill="#2f4a4c" filter="url(#stone)"/><rect x="4" y="4" width="192" height="192" rx="10" fill="url(#shade)"/><rect x="4" y="4" width="192" height="192" rx="10" filter="url(#grain)"/><circle cx="100" cy="100" r="96" fill="url(#aura)"/><path d="M4 14 Q4 4 14 4 L186 4 Q196 4 196 14 L196 186 Q196 196 186 196 L14 196 Q4 196 4 186 Z M12 18 Q12 12 18 12 L182 12 Q188 12 188 18 L188 182 Q188 188 182 188 L18 188 Q12 188 12 182 Z" fill-rule="evenodd" fill="#4ff5e2" filter="url(#wideGlow)"/><path d="M4 14 Q4 4 14 4 L186 4 Q196 4 196 14 L196 186 Q196 196 186 196 L14 196 Q4 196 4 186 Z M12 18 Q12 12 18 12 L182 12 Q188 12 188 18 L188 182 Q188 188 182 188 L18 188 Q12 188 12 182 Z" fill-rule="evenodd" fill="url(#tealMetal)" filter="url(#metal)"/><path d="M4.3 42.3H32.7L55.5 103.1L44.2 149.4ZM81.9 39 85 54.8 49.5 132.8Q49.5 132.8 48.6 135.2Q47.7 137.7 46.7 141.5Q45.8 145.3 45.6 149.4H44.2L39.6 130.2L80.5 39ZM81.9 39.2 115.3 107 107 149.4 69.8 73.5ZM139 42.3 110.7 132.8Q110.7 132.8 110 135.4Q109.2 138 108.6 141.8Q108 145.7 108.3 149.4H107L101.8 134.6L128.1 42.3ZM125.2 52.2Q126.4 47.7 124.5 45.3Q122.5 42.9 119.5 42.9H118.2V41.4H150.3V42.9Q150.3 42.9 149.7 42.9Q149.1 42.9 149.1 42.9Q145.7 42.9 141.6 45.1Q137.5 47.3 135.9 52.2ZM36.6 52.2H8.1Q6.1 47.3 2.2 45.1Q-1.6 42.9 -5.1 42.9Q-5.1 42.9 -5.7 42.9Q-6.3 42.9 -6.3 42.9V41.4H43.5V42.9H42.1Q39.3 42.9 37.1 45.3Q34.9 47.7 36.6 52.2Z" transform="translate(28.0 4.6)" fill="#4ff5e2" stroke="#4ff5e2" stroke-width="16" stroke-linejoin="round" filter="url(#wideGlow)" opacity="1"/><path d="M4.3 42.3H32.7L55.5 103.1L44.2 149.4ZM81.9 39 85 54.8 49.5 132.8Q49.5 132.8 48.6 135.2Q47.7 137.7 46.7 141.5Q45.8 145.3 45.6 149.4H44.2L39.6 130.2L80.5 39ZM81.9 39.2 115.3 107 107 149.4 69.8 73.5ZM139 42.3 110.7 132.8Q110.7 132.8 110 135.4Q109.2 138 108.6 141.8Q108 145.7 108.3 149.4H107L101.8 134.6L128.1 42.3ZM125.2 52.2Q126.4 47.7 124.5 45.3Q122.5 42.9 119.5 42.9H118.2V41.4H150.3V42.9Q150.3 42.9 149.7 42.9Q149.1 42.9 149.1 42.9Q145.7 42.9 141.6 45.1Q137.5 47.3 135.9 52.2ZM36.6 52.2H8.1Q6.1 47.3 2.2 45.1Q-1.6 42.9 -5.1 42.9Q-5.1 42.9 -5.7 42.9Q-6.3 42.9 -6.3 42.9V41.4H43.5V42.9H42.1Q39.3 42.9 37.1 45.3Q34.9 47.7 36.6 52.2Z" transform="translate(28.0 4.6)" fill="none" stroke="#03090b" stroke-width="8" stroke-linejoin="round"/><path d="M4.3 42.3H32.7L55.5 103.1L44.2 149.4ZM81.9 39 85 54.8 49.5 132.8Q49.5 132.8 48.6 135.2Q47.7 137.7 46.7 141.5Q45.8 145.3 45.6 149.4H44.2L39.6 130.2L80.5 39ZM81.9 39.2 115.3 107 107 149.4 69.8 73.5ZM139 42.3 110.7 132.8Q110.7 132.8 110 135.4Q109.2 138 108.6 141.8Q108 145.7 108.3 149.4H107L101.8 134.6L128.1 42.3ZM125.2 52.2Q126.4 47.7 124.5 45.3Q122.5 42.9 119.5 42.9H118.2V41.4H150.3V42.9Q150.3 42.9 149.7 42.9Q149.1 42.9 149.1 42.9Q145.7 42.9 141.6 45.1Q137.5 47.3 135.9 52.2ZM36.6 52.2H8.1Q6.1 47.3 2.2 45.1Q-1.6 42.9 -5.1 42.9Q-5.1 42.9 -5.7 42.9Q-6.3 42.9 -6.3 42.9V41.4H43.5V42.9H42.1Q39.3 42.9 37.1 45.3Q34.9 47.7 36.6 52.2Z" transform="translate(28.0 4.6)" fill="url(#tealMetal)" filter="url(#metal)"/><path d="M30 176 C34 150 8 140 24 122 C36 110 50 122 40 132" fill="none" stroke="#03090b" stroke-width="14" stroke-linecap="round"/><path d="M30 176 C34 150 8 140 24 122 C36 110 50 122 40 132" fill="none" stroke="#2f8f86" stroke-width="8" stroke-linecap="round" filter="url(#metal)"/><path d="M170 176 C166 150 192 140 176 122 C164 110 150 122 160 132" fill="none" stroke="#03090b" stroke-width="14" stroke-linecap="round"/><path d="M170 176 C166 150 192 140 176 122 C164 110 150 122 160 132" fill="none" stroke="#2f8f86" stroke-width="8" stroke-linecap="round" filter="url(#metal)"/>
</svg>
