<svg xmlns="http://www.w3.org/2000/svg" width="340" height="340" viewBox="0 0 200 200">
<defs><radialGradient id="navy" cx="0.5" cy="0.35" r="0.75"><stop offset="0" stop-color="#1b4377"/><stop offset="0.6" stop-color="#0c2147"/><stop offset="1" stop-color="#060f24"/></radialGradient><linearGradient id="gold" x1="0" y1="0" x2="0" y2="1"><stop offset="0" stop-color="#fff4c2"/><stop offset="0.35" stop-color="#f2c14e"/><stop offset="0.6" stop-color="#a8701c"/><stop offset="0.8" stop-color="#f0b847"/><stop offset="1" stop-color="#6b420c"/></linearGradient><linearGradient id="rim" x1="0" y1="0" x2="0" y2="1"><stop offset="0" stop-color="#ffffff" stop-opacity="0.9"/><stop offset="0.35" stop-color="#f2c14e"/><stop offset="1" stop-color="#f2c14e" stop-opacity="0.6"/></linearGradient><filter id="glow" x="-40%" y="-40%" width="180%" height="180%"><feGaussianBlur stdDeviation="5"/></filter><filter id="softGlow" x="-50%" y="-50%" width="200%" height="200%"><feGaussianBlur stdDeviation="10"/></filter></defs>
<rect x="5" y="5" width="190" height="190" rx="22" fill="url(#navy)" stroke="#050b1a" stroke-width="5"/><path d="M12 46 Q12 12 46 12 L154 12 Q188 12 188 46 L188 60 Q100 40 12 66 Z" fill="#ffffff" opacity="0.07"/><rect x="10" y="10" width="180" height="180" rx="18" fill="none" stroke="url(#rim)" stroke-width="6"/><circle cx="14" cy="14" r="6" fill="url(#gold)" stroke="#050b1a" stroke-width="2.5"/><circle cx="186" cy="14" r="6" fill="url(#gold)" stroke="#050b1a" stroke-width="2.5"/><circle cx="14" cy="186" r="6" fill="url(#gold)" stroke="#050b1a" stroke-width="2.5"/><circle cx="186" cy="186" r="6" fill="url(#gold)" stroke="#050b1a" stroke-width="2.5"/><defs><radialGradient id="skin" cx="0.4" cy="0.3" r="0.5"><stop offset="0" stop-color="#a6e4ff"/><stop offset="0.55" stop-color="#2a8ae6"/><stop offset="1" stop-color="#0b2a78"/></radialGradient></defs><circle cx="100" cy="90" r="64" fill="#2a8ae6" filter="url(#softGlow)" opacity="0.45"/><path d="M68 100 C46 114 36 138 50 152 C60 160 72 150 64 142" fill="none" stroke-linecap="round" stroke-linejoin="round" stroke="#0b1424" stroke-width="28"/><path d="M68 100 C46 114 36 138 50 152 C60 160 72 150 64 142" fill="none" stroke-linecap="round" stroke-linejoin="round" stroke="#2a8ae6" stroke-width="16"/><path d="M84 110 C76 134 78 154 94 160" fill="none" stroke-linecap="round" stroke-linejoin="round" stroke="#0b1424" stroke-width="28"/><path d="M84 110 C76 134 78 154 94 160" fill="none" stroke-linecap="round" stroke-linejoin="round" stroke="#2a8ae6" stroke-width="16"/><path d="M116 110 C124 134 122 154 106 160" fill="none" stroke-linecap="round" stroke-linejoin="round" stroke="#0b1424" stroke-width="28"/><path d="M116 110 C124 134 122 154 106 160" fill="none" stroke-linecap="round" stroke-linejoin="round" stroke="#2a8ae6" stroke-width="16"/><path d="M132 100 C154 114 164 138 150 152 C140 160 128 150 136 142" fill="none" stroke-linecap="round" stroke-linejoin="round" stroke="#0b1424" stroke-width="28"/><path d="M132 100 C154 114 164 138 150 152 C140 160 128 150 136 142" fill="none" stroke-linecap="round" stroke-linejoin="round" stroke="#2a8ae6" stroke-width="16"/><path d="M50 90 C50 30 150 30 150 90 C150 110 130 120 100 120 C70 120 50 110 50 90 Z" fill="url(#skin)" stroke="#050b1a" stroke-width="6"/><ellipse cx="80" cy="86" rx="14" ry="15" fill="#fff6c2" stroke="#050b1a" stroke-width="5"/><ellipse cx="82" cy="88" rx="5" ry="9" fill="#050b1a"/><ellipse cx="120" cy="86" rx="14" ry="15" fill="#fff6c2" stroke="#050b1a" stroke-width="5"/><ellipse cx="122" cy="88" rx="5" ry="9" fill="#050b1a"/><path d="M62 66 L92 76 M138 66 L108 76" stroke="#050b1a" stroke-width="6" stroke-linecap="round"/><ellipse cx="80" cy="50" rx="20" ry="8" fill="#ffffff" opacity="0.5" transform="rotate(-20 80 50)"/><circle cx="100" cy="150" r="36" fill="#f2c14e" filter="url(#glow)" opacity="0.7"/><circle cx="100" cy="150" r="34" fill="#1a0b26" stroke="url(#gold)" stroke-width="6"/>
</svg>
