<svg xmlns="http://www.w3.org/2000/svg" width="1034" height="922" viewBox="0 0 1034 922">
<defs><linearGradient id="gold" x1="0" y1="0" x2="0" y2="1"><stop offset="0" stop-color="#fff4c2"/><stop offset="0.35" stop-color="#f2c14e"/><stop offset="0.6" stop-color="#a8701c"/><stop offset="0.8" stop-color="#f0b847"/><stop offset="1" stop-color="#6b420c"/></linearGradient><linearGradient id="goldSide" x1="0" y1="0" x2="1" y2="0"><stop offset="0" stop-color="#fff4c2"/><stop offset="0.35" stop-color="#f2c14e"/><stop offset="0.6" stop-color="#a8701c"/><stop offset="0.8" stop-color="#f0b847"/><stop offset="1" stop-color="#6b420c"/></linearGradient><radialGradient id="gem" cx="0.4" cy="0.35" r="0.5"><stop offset="0" stop-color="#d6f6ff"/><stop offset="0.4" stop-color="#3fb6ff"/><stop offset="1" stop-color="#0b2f7a"/></radialGradient><linearGradient id="shadeTop" x1="0" y1="0" x2="0" y2="1"><stop offset="0" stop-color="#000000" stop-opacity="0.6"/><stop offset="1" stop-color="#000000" stop-opacity="0"/></linearGradient><linearGradient id="shadeBottom" x1="0" y1="0" x2="0" y2="1"><stop offset="0" stop-color="#000000" stop-opacity="0"/><stop offset="1" stop-color="#000000" stop-opacity="0.55"/></linearGradient><linearGradient id="rod" x1="0" y1="0" x2="1" y2="0"><stop offset="0" stop-color="#6b420c"/><stop offset="0.5" stop-color="#ffe08a"/><stop offset="1" stop-color="#6b420c"/></linearGradient><radialGradient id="crest" cx="0.4" cy="0.3" r="0.5"><stop offset="0" stop-color="#a6e4ff"/><stop offset="0.55" stop-color="#2a8ae6"/><stop offset="1" stop-color="#0b2a78"/></radialGradient><filter id="glow" x="-40%" y="-40%" width="180%" height="180%"><feGaussianBlur stdDeviation="6"/></filter></defs>
<path d="M10 80 h1014 v832 h-1014 Z M40 110 h954 v772 h-954 Z" fill="#0a1a33" fill-rule="evenodd"/><path d="M10 80 h1014 v832 h-1014 Z M40 110 h954 v772 h-954 Z" fill="none" stroke="#050b1a" stroke-width="10"/><rect x="16" y="86" width="1002" height="820" rx="10" fill="none" stroke="url(#gold)" stroke-width="9"/><rect x="34" y="104" width="966" height="784" rx="4" fill="none" stroke="url(#gold)" stroke-width="6"/><rect x="39" y="109" width="956" height="774" fill="none" stroke="#7fd0ff" stroke-width="2" opacity="0.6"/><rect x="40" y="110" width="954" height="34" fill="url(#shadeTop)"/><rect x="40" y="848" width="954" height="34" fill="url(#shadeBottom)"/><rect x="241.5" y="116" width="5" height="760" fill="url(#rod)"/><path d="M244 109 L248.9 116 L244 123 L239.1 116 Z" fill="url(#gold)" stroke="#050b1a" stroke-width="2"/><path d="M244 869 L248.9 876 L244 883 L239.1 876 Z" fill="url(#gold)" stroke="#050b1a" stroke-width="2"/><rect x="423.5" y="116" width="5" height="760" fill="url(#rod)"/><path d="M426 109 L430.9 116 L426 123 L421.1 116 Z" fill="url(#gold)" stroke="#050b1a" stroke-width="2"/><path d="M426 869 L430.9 876 L426 883 L421.1 876 Z" fill="url(#gold)" stroke="#050b1a" stroke-width="2"/><rect x="605.5" y="116" width="5" height="760" fill="url(#rod)"/><path d="M608 109 L612.9 116 L608 123 L603.1 116 Z" fill="url(#gold)" stroke="#050b1a" stroke-width="2"/><path d="M608 869 L612.9 876 L608 883 L603.1 876 Z" fill="url(#gold)" stroke="#050b1a" stroke-width="2"/><rect x="787.5" y="116" width="5" height="760" fill="url(#rod)"/><path d="M790 109 L794.9 116 L790 123 L785.1 116 Z" fill="url(#gold)" stroke="#050b1a" stroke-width="2"/><path d="M790 869 L794.9 876 L790 883 L785.1 876 Z" fill="url(#gold)" stroke="#050b1a" stroke-width="2"/><circle cx="517.0" cy="90" r="18" fill="#3fb6ff" filter="url(#glow)" opacity="0.7"/><circle cx="517.0" cy="90" r="16" fill="url(#gold)" stroke="#050b1a" stroke-width="3"/><circle cx="517.0" cy="90" r="13" fill="url(#gem)" stroke="#050b1a" stroke-width="2"/><circle cx="512.45" cy="85.45" r="3.9" fill="#ffffff" opacity="0.8"/><circle cx="517.0" cy="902" r="18" fill="#3fb6ff" filter="url(#glow)" opacity="0.7"/><circle cx="517.0" cy="902" r="16" fill="url(#gold)" stroke="#050b1a" stroke-width="3"/><circle cx="517.0" cy="902" r="13" fill="url(#gem)" stroke="#050b1a" stroke-width="2"/><circle cx="512.45" cy="897.45" r="3.9" fill="#ffffff" opacity="0.8"/><circle cx="20" cy="496.0" r="18" fill="#3fb6ff" filter="url(#glow)" opacity="0.7"/><circle cx="20" cy="496.0" r="16" fill="url(#gold)" stroke="#050b1a" stroke-width="3"/><circle cx="20" cy="496.0" r="13" fill="url(#gem)" stroke="#050b1a" stroke-width="2"/><circle cx="15.45" cy="491.45" r="3.9" fill="#ffffff" opacity="0.8"/><circle cx="1014" cy="496.0" r="18" fill="#3fb6ff" filter="url(#glow)" opacity="0.7"/><circle cx="1014" cy="496.0" r="16" fill="url(#gold)" stroke="#050b1a" stroke-width="3"/><circle cx="1014" cy="496.0" r="13" fill="url(#gem)" stroke="#050b1a" stroke-width="2"/><circle cx="1009.45" cy="491.45" r="3.9" fill="#ffffff" opacity="0.8"/><circle cx="24" cy="94" r="15" fill="#3fb6ff" filter="url(#glow)" opacity="0.7"/><circle cx="24" cy="94" r="13" fill="url(#gold)" stroke="#050b1a" stroke-width="3"/><circle cx="24" cy="94" r="10" fill="url(#gem)" stroke="#050b1a" stroke-width="2"/><circle cx="20.5" cy="90.5" r="3.0" fill="#ffffff" opacity="0.8"/><circle cx="1010" cy="94" r="15" fill="#3fb6ff" filter="url(#glow)" opacity="0.7"/><circle cx="1010" cy="94" r="13" fill="url(#gold)" stroke="#050b1a" stroke-width="3"/><circle cx="1010" cy="94" r="10" fill="url(#gem)" stroke="#050b1a" stroke-width="2"/><circle cx="1006.5" cy="90.5" r="3.0" fill="#ffffff" opacity="0.8"/><circle cx="24" cy="898" r="15" fill="#3fb6ff" filter="url(#glow)" opacity="0.7"/><circle cx="24" cy="898" r="13" fill="url(#gold)" stroke="#050b1a" stroke-width="3"/><circle cx="24" cy="898" r="10" fill="url(#gem)" stroke="#050b1a" stroke-width="2"/><circle cx="20.5" cy="894.5" r="3.0" fill="#ffffff" opacity="0.8"/><circle cx="1010" cy="898" r="15" fill="#3fb6ff" filter="url(#glow)" opacity="0.7"/><circle cx="1010" cy="898" r="13" fill="url(#gold)" stroke="#050b1a" stroke-width="3"/><circle cx="1010" cy="898" r="10" fill="url(#gem)" stroke="#050b1a" stroke-width="2"/><circle cx="1006.5" cy="894.5" r="3.0" fill="#ffffff" opacity="0.8"/><path d="M6 240 C0 160 30 100 90 84 C140 72 180 94 176 126 C172 154 140 156 132 134" fill="none" stroke-linecap="round" stroke-linejoin="round" stroke="#0b1424" stroke-width="38"/><path d="M6 240 C0 160 30 100 90 84 C140 72 180 94 176 126 C172 154 140 156 132 134" fill="none" stroke-linecap="round" stroke-linejoin="round" stroke="#c0302a" stroke-width="26"/><path d="M6 240 C0 160 30 100 90 84 C140 72 180 94 176 126 C172 154 140 156 132 134" fill="none" stroke="#ff8a7a" stroke-width="6" stroke-linecap="round" opacity="0.55" transform="translate(-3 -5)"/><path d="M1028 240 C1034 160 1004 100 944 84 C894 72 854 94 858 126 C862 154 894 156 902 134" fill="none" stroke-linecap="round" stroke-linejoin="round" stroke="#0b1424" stroke-width="38"/><path d="M1028 240 C1034 160 1004 100 944 84 C894 72 854 94 858 126 C862 154 894 156 902 134" fill="none" stroke-linecap="round" stroke-linejoin="round" stroke="#c0302a" stroke-width="26"/><path d="M1028 240 C1034 160 1004 100 944 84 C894 72 854 94 858 126 C862 154 894 156 902 134" fill="none" stroke="#ff8a7a" stroke-width="6" stroke-linecap="round" opacity="0.55" transform="translate(-3 -5)"/><circle cx="14" cy="202" r="5" fill="#ffd0c8" stroke="#050b1a" stroke-width="2"/><circle cx="1020" cy="202" r="5" fill="#ffd0c8" stroke="#050b1a" stroke-width="2"/><circle cx="30" cy="146" r="5" fill="#ffd0c8" stroke="#050b1a" stroke-width="2"/><circle cx="1004" cy="146" r="5" fill="#ffd0c8" stroke="#050b1a" stroke-width="2"/><circle cx="80" cy="112" r="5" fill="#ffd0c8" stroke="#050b1a" stroke-width="2"/><circle cx="954" cy="112" r="5" fill="#ffd0c8" stroke="#050b1a" stroke-width="2"/><circle cx="130" cy="108" r="5" fill="#ffd0c8" stroke="#050b1a" stroke-width="2"/><circle cx="904" cy="108" r="5" fill="#ffd0c8" stroke="#050b1a" stroke-width="2"/><path d="M397.0 116 Q517.0 50 637.0 116 L613.0 128 L421.0 128 Z" fill="url(#gold)" stroke="#050b1a" stroke-width="5" stroke-linejoin="round"/><path d="M487.0 86 C447.0 82 427.0 110 447.0 122" fill="none" stroke-linecap="round" stroke-linejoin="round" stroke="#0b1424" stroke-width="22"/><path d="M487.0 86 C447.0 82 427.0 110 447.0 122" fill="none" stroke-linecap="round" stroke-linejoin="round" stroke="#2a8ae6" stroke-width="12"/><path d="M547.0 86 C587.0 82 607.0 110 587.0 122" fill="none" stroke-linecap="round" stroke-linejoin="round" stroke="#0b1424" stroke-width="22"/><path d="M547.0 86 C587.0 82 607.0 110 587.0 122" fill="none" stroke-linecap="round" stroke-linejoin="round" stroke="#2a8ae6" stroke-width="12"/><path d="M471.0 86 C471.0 20 563.0 20 563.0 86 C563.0 102 543.0 108 517.0 108 C491.0 108 471.0 102 471.0 86 Z" fill="url(#crest)" stroke="#050b1a" stroke-width="5"/><ellipse cx="499.0" cy="80" rx="8" ry="6" fill="#7ff6ff" filter="url(#glow)"/><ellipse cx="499.0" cy="80" rx="5" ry="3.5" fill="#e8ffff"/><ellipse cx="535.0" cy="80" rx="8" ry="6" fill="#7ff6ff" filter="url(#glow)"/><ellipse cx="535.0" cy="80" rx="5" ry="3.5" fill="#e8ffff"/><circle cx="517.0" cy="52" r="16" fill="#3fb6ff" filter="url(#glow)" opacity="0.7"/><circle cx="517.0" cy="52" r="14" fill="url(#gold)" stroke="#050b1a" stroke-width="3"/><circle cx="517.0" cy="52" r="11" fill="url(#gem)" stroke="#050b1a" stroke-width="2"/><circle cx="513.15" cy="48.15" r="3.3" fill="#ffffff" opacity="0.8"/>
</svg>
